<?xml version="1.0" standalone="no"?>
<!DOCTYPE svg PUBLIC "-//W3C//DTD SVG 1.1//EN" "http://www.w3.org/Graphics/SVG/1.1/DTD/svg11.dtd" >
<svg xmlns="http://www.w3.org/2000/svg">
  <metadata>Created by iconfont</metadata>
  <defs>
  <font id="iconfont" horiz-adv-x="1024">
    <font-face
      font-family="iconfont"
      font-weight="400"
      font-stretch="normal"
      units-per-em="1024"
      ascent="896"
      descent="-128"
    />
      <missing-glyph />
      
      <glyph glyph-name="xiajiantou3" unicode="&#59012;" d="M862.752 569.984H161.248l349.696-371.936L862.72 569.984z"  horiz-adv-x="1024" />
      
      <glyph glyph-name="xiajiantou" unicode="&#58923;" d="M512.6 172L76.4 535c-14.6 12.2-16.6 33.9-4.4 48.5 12.2 14.6 33.9 16.6 48.5 4.4l392-326.2 391 326.3c14.6 12.2 36.3 10.2 48.5-4.4 12.2-14.6 10.2-36.3-4.4-48.5L512.6 172z"  horiz-adv-x="1024" />
      
      <glyph glyph-name="liwu" unicode="&#58964;" d="M892.37417 655.910876l-132.471081-0.301875c26.78504 18.777669 41.695634 33.331129 44.445258 36.09201 24.994254 23.489994 39.318494 51.354622 41.432645 80.610946 1.965771 27.185152-6.886851 53.847395-24.926716 75.073836C800.420899 871.428372 770.994706 885.799684 737.995127 887.850389c-35.577287 2.215458-72.176856-10.187013-105.915261-35.861766-8.100492-4.860704-42.739407-27.471678-88.884376-83.773985-53.851489-62.161758-52.448536-166.171624-52.252061-174.288488l0-256.93786L103.228059 336.98829 103.228059 581.348694c0 16.883529 13.734816 30.619368 30.614252 30.619368l212.876342-0.040932c0.002047 0 0.002047 0 0.004093 0 10.855232 0 20.276812 7.868201 21.912056 18.600637 1.630127 10.69969-4.585435 20.926612-14.891152 24.193005-2.038426 0.756223-37.338397 14.354939-102.273315 69.477374-16.180518 13.734816-25.430182 30.072923-26.748201 47.24707-1.171686 15.263635 3.933589 30.772864 14.375405 43.672662 24.24417 29.952172 75.073836 43.104727 129.390929 1.202385 1.25969-0.972141 1.442862-1.222851 2.713808-1.817392 1.942235-1.304715 11.269671-7.966439 33.893948-29.612435 5.225001-5.411243 38.312584-38.517245 72.0295-45.614897 11.867282-2.495844 23.526833 5.099135 26.027793 16.97358 2.498914 11.874445-5.099135 23.526833-16.974603 26.02677-16.128329 3.39533-39.035038 22.26612-49.666166 33.342386-0.226151 0.237407-0.458441 0.469698-0.695848 0.696872-24.559349 23.520693-36.359093 32.311917-41.461297 35.546587-73.9175 56.342216-151.147442 38.181601-189.413977-9.096169-17.532305-21.660322-26.067702-48.182372-24.034393-74.682933 2.235924-29.129434 16.801664-55.888891 42.1244-77.385485 16.330944-13.862729 30.978549-25.335015 43.928488-34.81083l-133.11474 0.025583c-41.114396 0-74.563206-33.44881-74.563206-74.563206l0-620.857267c0-41.114396 33.44881-74.562183 74.563206-74.562183l758.576885 0c41.114396 0 74.562183 33.44881 74.562183 74.562183L966.984449 581.348694C966.986495 622.46309 933.537685 655.9119 892.37417 655.910876zM534.877033 594.860429c-0.007163 0.234337-0.630357 23.76117 4.460592 54.044894 4.556783 27.106358 14.716166 64.84896 37.229926 90.716094 0.145309 0.166799 0.286526 0.335644 0.426719 0.505513 44.783972 54.695716 76.387761 73.42836 77.961606 74.339102 1.069355 0.571005 1.855254 1.105171 2.825348 1.853208 54.69981 42.196031 105.518219 30.931476 129.588427 2.608407 18.120706-21.321608 25.495674-59.109236-13.355169-95.430466-0.227174-0.211824-0.485047-0.464581-0.703011-0.686638-0.353041-0.35918-36.084846-36.309974-103.982236-69.632917-9.184173-4.507664-14.041808-14.756075-11.715833-24.717961 2.320858-9.946536 11.186783-16.97972 21.396309-16.978696 0.016373 0 0.033769 0 0.050142 0l213.364459 0.48607c16.883529 0 30.618345-13.735839 30.618345-30.619368l0-244.361427L534.887266 336.986243 534.887266 594.214722C534.887266 594.43064 534.884197 594.645534 534.877033 594.860429zM103.228059-39.508573 103.228059 293.042405l387.715369 0L490.943428-70.126918 133.846404-70.126918C116.962875-70.126918 103.228059-56.391079 103.228059-39.508573zM892.424312-70.126918 534.887266-70.126918 534.887266 293.042405l388.154367 0 0-332.552002C923.041634-56.391079 909.307841-70.126918 892.424312-70.126918z"  horiz-adv-x="1024" />
      
      <glyph glyph-name="group52" unicode="&#58932;" d="M539.643151 389.503945 539.643151 389.503945M550.712754 156.012807c-130.067836 0-235.229066 102.393829-235.229066 229.694264 0 127.300436 105.161229 229.694264 235.229066 229.694264s235.229066-102.393829 235.229066-229.694264C785.94182 258.406635 680.780591 156.012807 550.712754 156.012807zM550.712754 557.285919c-99.626428 0-179.88105-77.487222-179.88105-174.346249 0-96.859027 80.254622-174.346249 179.88105-174.346249 99.626428 0 179.88105 77.487222 179.88105 174.346249C730.593805 479.798698 650.339182 557.285919 550.712754 557.285919zM387.436109-109.657668c-2.767401 0-5.534802 0-8.302202 0C304.414085-87.518461 235.229066-46.00745 177.11365 3.805764 168.811447 9.340566 166.044047 20.410169 168.811447 31.479772c8.302202 47.045813 0 96.859027-24.906607 138.370039-24.906607 41.511012-66.417619 74.719821-113.463432 88.556825-8.302202 2.767401-16.604405 11.069603-19.371805 19.371805C5.534802 316.522052 0 355.265663 0 391.241873c0 38.743611 5.534802 74.719821 13.837004 113.463432 2.767401 8.302202 8.302202 16.604405 19.371805 19.371805 47.045813 16.604405 88.556825 47.045813 113.463432 88.556825 24.906607 41.511012 33.208809 91.324226 24.906607 138.370039C166.044047 764.840977 168.811447 773.14318 177.11365 781.445382 235.229066 831.258596 304.414085 870.002207 379.133906 894.908814c8.302202 2.767401 19.371805 0 24.906607-5.534802C442.784124 856.165203 492.597338 839.560798 542.410552 839.560798c49.813214 0 99.626428 16.604405 138.370039 49.813214C686.315392 894.908814 697.384995 897.676215 705.687198 894.908814c74.719821-22.139206 143.90484-60.882817 202.020257-113.463432 8.302202-5.534802 11.069603-16.604405 8.302202-24.906607-8.302202-47.045813 0-96.859027 24.906607-138.370039 24.906607-41.511012 66.417619-74.719821 113.463432-88.556825 8.302202-2.767401 16.604405-11.069603 19.371805-19.371805 8.302202-35.97621 13.837004-74.719821 13.837004-113.463432 0-38.743611-5.534802-74.719821-13.837004-113.463432-2.767401-8.302202-8.302202-16.604405-19.371805-19.371805-47.045813-16.604405-88.556825-47.045813-113.463432-88.556825-24.906607-41.511012-33.208809-91.324226-24.906607-138.370039 2.767401-8.302202-2.767401-19.371805-8.302202-24.906607-58.115416-52.580615-127.300436-91.324226-202.020257-113.463432-8.302202-2.767401-19.371805 0-24.906607 5.534802-38.743611 33.208809-85.789424 49.813214-138.370039 49.813214-49.813214 0-99.626428-16.604405-138.370039-49.813214C401.273112-106.890267 392.97091-109.657668 387.436109-109.657668zM542.410552 1.038363c58.115416 0 116.230833-19.371805 160.509245-52.580615 58.115416 19.371805 110.696031 49.813214 157.741844 88.556825-8.302202 55.348016 2.767401 113.463432 33.208809 160.509245 30.441409 49.813214 74.719821 85.789424 127.300436 107.92863 5.534802 27.674008 8.302202 58.115416 8.302202 85.789424 0 27.674008-2.767401 58.115416-8.302202 85.789424-52.580615 22.139206-99.626428 60.882817-127.300436 107.92863-30.441409 49.813214-41.511012 105.161229-33.208809 160.509245-47.045813 38.743611-99.626428 69.185019-157.741844 88.556825C658.641385 800.817188 600.525968 784.212783 542.410552 784.212783c-58.115416 0-116.230833 19.371805-160.509245 52.580615-58.115416-19.371805-110.696031-49.813214-157.741844-88.556825 8.302202-55.348016-2.767401-113.463432-33.208809-160.509245-30.441409-49.813214-74.719821-85.789424-127.300436-107.92863-5.534802-27.674008-8.302202-58.115416-8.302202-85.789424 0-27.674008 2.767401-58.115416 8.302202-85.789424 52.580615-22.139206 99.626428-60.882817 127.300436-107.92863C221.392062 147.710604 232.461665 92.362589 224.159463 34.247173c47.045813-38.743611 99.626428-69.185019 157.741844-88.556825C428.94712-18.333442 484.295136 1.038363 542.410552 1.038363z"  horiz-adv-x="1107" />
      
      <glyph glyph-name="renyuan" unicode="&#58944;" d="M512 395.832889c-115.143111 0-208.782222 93.070222-208.782222 207.416889S396.856889 810.666667 512 810.666667s208.782222-93.070222 208.782222-207.416889S627.143111 395.832889 512 395.832889z m0 350.833778c-79.815111 0-144.782222-64.284444-144.782222-143.36 0-79.075556 64.967111-143.473778 144.782222-143.473778s144.782222 64.341333 144.782222 143.416889S591.815111 746.666667 512 746.666667zM821.361778-42.666667a31.971556 31.971556 0 0 0-32.028445 32.028445v175.388444c0 30.72-20.309333 55.694222-45.340444 55.694222H280.007111c-25.031111 0-45.340444-25.031111-45.340444-55.751111v-175.331555a31.971556 31.971556 0 1 0-64 0v175.388444c0 65.991111 49.038222 119.694222 109.340444 119.694222h463.985778c60.302222 0 109.340444-53.703111 109.340444-119.694222v-175.445333c0-17.635556-14.336-31.971556-32.028444-31.971556z"  horiz-adv-x="1024" />
      
      <glyph glyph-name="wenjian" unicode="&#58947;" d="M520.8393282 806.44722839l0-281.59174366 281.94444751 0L520.8393282 806.44722839zM485.71425436 489.4348338L485.71425436 806.44722839l0 0L203.59221157 806.44722839l0-844.89321403 616.8143341 0L820.40654567 489.4348338 485.71425436 489.4348338z"  horiz-adv-x="1024" />
      
      <glyph glyph-name="wenjianf" unicode="&#60459;" d="M521.42861675 834.61037695l0-300.36452657 300.74074401 0L521.42861675 834.61037695zM483.96187132 496.46382272L483.96187132 834.61037695l0 0L183.03169234 834.61037695l0-901.2194283 657.93528971 0L840.96698205 496.46382272 483.96187132 496.46382272z"  horiz-adv-x="1024" />
      
      <glyph glyph-name="svue-backup" unicode="&#60458;" d="M594.29811305 640.29786516L553.14905653 640.29786516 553.14905653 312.79418128 347.4037739 312.79418128 347.4037739 271.64374391 594.29811305 271.64374391ZM491.658 831C329.679 831 188.1 744.627 109.7 615.5899999999999l-0.582 215.366L85.342 831l0.698-259.324c-0.203-0.48-0.494-0.946-0.698-1.426l0.698 0 0.059-13.27 274.021-0.742-0.059 23.776-235.868 0.64C194.589 711.713 332.764 801.2 491.658 801.2c230.048 0 417.2-187.152 417.2-417.2s-187.152-417.2-417.2-417.2c-163.114 0-304.606 94.173-373.141 230.95L85.342 197.75C156 43.91899999999998 311.315-63 491.658-63c246.868 0 447 200.161 447 447C938.658 630.869 738.526 831 491.658 831z"  horiz-adv-x="1024" />
      
      <glyph glyph-name="jiazaidonghua" unicode="&#58989;" d="M657.248227 896h341.333333v-1024H657.248227zM3.631206 387.631206h508.368794v-508.368795H3.631206zM3.631206 896h508.368794v-341.333333H3.631206z"  horiz-adv-x="1024" />
      
      <glyph glyph-name="svue-sousuokuang" unicode="&#60457;" d="M977.066667 593.066667H46.933333C21.333333 593.066667 0 571.733333 0 546.133333V170.66666699999996c0-25.6 21.333333-46.933333 46.933333-46.933334h930.133334c25.6 0 46.933333 21.333333 46.933333 46.933334V546.133333c0 25.6-21.333333 46.933333-46.933333 46.933334z m-12.8-409.6H59.733333V533.333333h904.533334v-349.866666zM676.37118055 554.74858823h267.18750027c21.09375003 0 38.67187474-17.57812473 38.67187473-38.67187554V206.70171324c0-21.09375003-17.57812473-38.67187474-38.67187473-38.67187554h-267.18750027c-21.09375003 0-38.67187474 17.57812473-38.67187473 38.67187554V516.07671269c0 21.09375003 17.57812473 38.67187474 38.67187473 38.67187554zM826.60555526 243.73296268c-67.50000001 0-123.75 56.25-123.75 123.75s56.25 123.75 123.75 123.74999999 123.75-56.25 123.75-123.74999999-56.25-123.75-123.75-123.75z m0 206.25000029c-45 0-82.50000029-37.50000029-82.49999942-82.50000029s37.50000029-82.50000029 82.49999942-82.49999943 82.50000029 37.50000029 82.50000029 82.49999943-37.50000029 82.50000029-82.50000029 82.50000027zM866.133333 281.6l34.133334 34.133333 68.266666-68.266666-29.866666-38.4-72.533334 72.533333"  horiz-adv-x="1024" />
      
      <glyph glyph-name="svue-biaoge" unicode="&#60446;" d="M960 304.576V527.04c0 0.288 0.16 0.512 0.16 0.768S960 528.3199999999999 960 528.576V704a32 32 0 0 1-32 32H96a32 32 0 0 1-32-32v-175.424c0-0.288-0.16-0.512-0.16-0.768s0.16-0.48 0.16-0.768v-222.464c0-0.288-0.16-0.512-0.16-0.768s0.16-0.48 0.16-0.768V32a32 32 0 0 1 32-32h832a32 32 0 0 1 32 32v271.04c0 0.288 0.16 0.512 0.16 0.768S960 304.32000000000005 960 304.576z m-560 31.232v160H608v-160h-208z m208-64V64h-208v207.808H608z m-480 224h208v-160H128v160z m544 0h224v-160h-224v160zM896 672v-112.192H128V672h768zM128 271.808h208V64H128v207.808zM672 64v207.808h224V64h-224z"  horiz-adv-x="1024" />
      
      <glyph glyph-name="svue-yibiaopan" unicode="&#60447;" d="M512 882.967273A510.138182 510.138182 0 0 1 90.530909 86.34181799999999a35.141818 35.141818 0 0 1 28.858182-15.127273 33.978182 33.978182 0 0 1 20.247273 6.05091 34.676364 34.676364 0 0 1 9.309091 48.407272 438.923636 438.923636 0 0 0-75.17091 228.538182h56.785455a37.701818 37.701818 0 0 1 0 75.170909H76.334545A437.992727 437.992727 0 0 0 162.909091 640l32.581818-32.581818a37.701818 37.701818 0 0 1 53.294546 53.061818L214.109091 695.621818a439.156364 439.156364 0 0 0 263.214545 116.363637 34.443636 34.443636 0 0 1-2.094545-11.869091v-59.345455a37.701818 37.701818 0 0 1 75.170909 0V799.650909a40.96 40.96 0 0 1-2.094545 11.869091A437.992727 437.992727 0 0 0 809.890909 696.785455l-36.305454-36.305455a37.701818 37.701818 0 0 1 53.294545-53.061818L861.090909 641.396364a436.596364 436.596364 0 0 0 88.203636-212.014546h-55.854545a37.701818 37.701818 0 0 1 0-75.170909h58.88a437.294545 437.294545 0 0 0-72.610909-224.814545 34.909091 34.909091 0 0 1 58.181818-38.632728A510.370909 510.370909 0 0 1 512 882.967273zM608.814545 518.749091L498.036364 407.272727a51.432727 51.432727 0 0 1-8.610909 0 62.370909 62.370909 0 1 1 62.370909-62.138182 46.545455 46.545455 0 0 1 0 7.912728l111.010909 111.010909a37.469091 37.469091 0 0 1-53.061818 53.061818z"  horiz-adv-x="1024" />
      
      <glyph glyph-name="svue-huanxingtu" unicode="&#60448;" d="M858 98.60000000000002c62.4 75.6 98.4 170.4 102.3 268.3l-207.1-5.8c-4.2-44.7-20.5-86.1-45.8-120.3L858 98.60000000000002z m-106.7 322l207.1 5.8c-1.3 14.1-3.4 28.4-6.1 42.2-16.8 88.4-59.5 168.9-123.2 232.7-77.1 77-178.8 123-287.4 130.5v-207.5c107.8-13.3 193.4-97.1 209.6-203.7zM269.9 384c0 123.7 92.7 225.8 212.4 240.4V831.9c-108.5-7.1-210.4-53.3-287.5-130.4C20 526.7 20 242 194.9 67.10000000000002c166.5-166.5 435.4-175.5 612.1-20.5 3.4 2.8 6.7 5.8 10.1 8.9L666.4 197.60000000000002c-41.9-34.8-95.9-55.6-154.6-55.6-133.5-0.1-241.9 108.2-241.9 242z"  horiz-adv-x="1024" />
      
      <glyph glyph-name="svue-zifuyun" unicode="&#60453;" d="M978.478545 213.341091H637.160727c-25.134545 0-45.521455 20.829091-45.521454 46.545454s20.363636 46.545455 45.521454 46.545455h341.317818c25.134545 0 45.521455-20.829091 45.521455-46.545455s-20.363636-46.545455-45.521455-46.545454z m0 496.477091h-204.8c-25.134545 0-45.498182 20.829091-45.498181 46.545454s20.363636 46.545455 45.498181 46.545455h204.8C1003.613091 802.909091 1024 782.08 1024 756.363636s-20.363636-46.545455-45.521455-46.545454zM591.639273 709.818182H45.521455C20.386909 709.818182 0 730.647273 0 756.363636s20.363636 46.545455 45.521455 46.545455h546.117818c25.134545 0 45.521455-20.829091 45.521454-46.545455s-20.363636-46.545455-45.521454-46.545454zM45.521455 554.658909h204.8c25.134545 0 45.498182-20.829091 45.498181-46.545454s-20.363636-46.545455-45.498181-46.545455h-204.8c-25.134545 0-45.521455 20.829091-45.521455 46.545455s20.363636 46.545455 45.521455 46.545454z m0-496.477091h932.95709c25.134545 0 45.521455-20.829091 45.521455-46.545454s-20.363636-46.545455-45.521455-46.545455H45.521455C20.386909-34.90909099999999 0-14.080000000000041 0 11.636363999999958s20.363636 46.545455 45.521455 46.545454zM116.363636 324.49163599999997h325.818182a46.545455 46.545455 0 0 0 46.545455-46.545454v-46.545455a46.545455 46.545455 0 0 0-46.545455-46.545454H116.363636a46.545455 46.545455 0 0 0-46.545454 46.545454v46.545455a46.545455 46.545455 0 0 0 46.545454 46.545454zM418.909091 578.56h465.454545a46.545455 46.545455 0 0 0 46.545455-46.545455v-46.545454a46.545455 46.545455 0 0 0-46.545455-46.545455H418.909091a46.545455 46.545455 0 0 0-46.545455 46.545455v46.545454a46.545455 46.545455 0 0 0 46.545455 46.545455z"  horiz-adv-x="1024" />
      
      <glyph glyph-name="svue-fanpaiqi" unicode="&#60449;" d="M960 810.666667a64 64 0 0 0 63.701333-57.856l0.298667-6.144v-313.344l-21.333333-12.373334a42.666667 42.666667 0 0 1-4.181334-71.168l4.224-2.773333 21.290667-12.330667v-313.344a64 64 0 0 0-57.856-63.701333l-6.144-0.298667h-896a64 64 0 0 0-63.701333 57.856l-0.298667 6.144v313.344l21.333333 12.373334a42.666667 42.666667 0 0 1 4.181334 71.168l-4.224 2.773333-21.290667 12.330667v313.344a64 64 0 0 0 57.856 63.701333l6.144 0.298667h896z m-21.333333-85.290667h-853.333334l0.042667-246.016 5.205333-4.906667a128 128 0 0 0 30.336-48.426666 38.826667 38.826667 0 0 0 7.082667 0.64h42.666667a42.666667 42.666667 0 0 0 0-85.333334h-42.666667c-2.432 0-4.821333 0.213333-7.125333 0.597334a127.146667 127.146667 0 0 0-23.765334-41.301334l-6.528-7.082666-5.205333-4.864-0.042667-245.973334h853.376l-0.042666 245.973334-5.248 4.864a128 128 0 0 0-30.336 48.426666 38.229333 38.229333 0 0 0-7.082667-0.64h-42.666667a42.666667 42.666667 0 0 0 0 85.333334h42.666667c2.432 0 4.821333-0.213333 7.125333-0.597334a127.146667 127.146667 0 0 0 23.765334 41.301334l6.528 7.082666 5.248 4.906667v246.016zM256 640m42.666667 0l0 0q42.666667 0 42.666666-42.666667l0-426.666666q0-42.666667-42.666666-42.666667l0 0q-42.666667 0-42.666667 42.666667l0 426.666666q0 42.666667 42.666667 42.666667ZM597.333333 640c95.317333 0 170.666667-83.712 170.666667-184.874667 0-58.026667-24.832-111.914667-66.773333-146.773333l-114.090667-95.018667H725.333333a42.666667 42.666667 0 0 0 42.368-37.674666l0.298667-4.992a42.666667 42.666667 0 0 0-37.674667-42.368l-4.992-0.298667h-244.010666a46.933333 46.933333 0 0 0-30.250667 82.986667l195.584 162.986666c22.272 18.517333 36.010667 48.298667 36.010667 81.152 0 55.893333-39.253333 99.541333-85.333334 99.541334-30.677333 0-59.093333-19.370667-74.24-50.602667l-3.072-6.826667a42.666667 42.666667 0 0 0-79.146666 31.829334c26.709333 66.389333 87.381333 110.933333 156.458666 110.933333z"  horiz-adv-x="1024" />
      
      <glyph glyph-name="svue-beijingtupian" unicode="&#60444;" d="M128.299 768C92.788 768 64 739.212 64 703.701v-639.4C64 28.78800000000001 92.788 0 128.299 0H895.7c35.512 0 64.3 28.788 64.3 64.299V703.701C960 739.212 931.212 768 895.701 768H128.299zM128 307.687l178.162 178.162c24.795 24.795 64.996 24.795 89.792 0L817.803 64H128V307.687z m768-231.375L666.385 305.927l64.718 64.718c25.153 25.152 65.933 25.152 91.085 0L896 296.83299999999997v-220.521zM694.65 424.701l-73.519-73.519L432.653 539.6600000000001c-45.064 45.064-118.127 45.064-163.19 0L128 398.197V704h768v-316.657l-37.358 37.358c-45.286 45.285-118.707 45.285-163.992 0z"  horiz-adv-x="1024" />
      
      <glyph glyph-name="svue-jindutiao" unicode="&#60450;" d="M132.26877353 522.08408257m34.52102125 0l414.25224651 0q34.52102004 0 34.52102003-34.52102125l0-207.12612264q0-34.52102004-34.52102003-34.52102125l-414.25224651 0q-34.52102004 0-34.52102125 34.52102125l0 207.12612264q0 34.52102004 34.52102125 34.52102125ZM867.99802482 610.5441974099999H156.00197518a97.09036999 97.09036999 0 0 1-97.09036999-97.09037v-258.90765482a97.09036999 97.09036999 0 0 1 97.09036999-97.09037h711.99604964a97.09036999 97.09036999 0 0 1 97.09036999 97.09037v258.90765482a97.09036999 97.09036999 0 0 1-97.09036999 97.09037z m32.36345628-339.81629668a48.54518557 48.54518557 0 0 0-48.54518443-48.54518443h-679.63259334A48.54518557 48.54518557 0 0 0 123.6385189 270.72790073v226.54419854A48.54518557 48.54518557 0 0 0 172.18370333 545.8172837h679.63259334a48.54518557 48.54518557 0 0 0 48.54518443-48.54518443z"  horiz-adv-x="1024" />
      
      <glyph glyph-name="svue-leidatu" unicode="&#60439;" d="M512 864L32 514.66666688l184.00000031-565.33333313h591.99999938L992 514.66666688 512 864z m26.66666625-79.99999969l368.00000063-266.66666718-85.33333313-29.33333344L538.66666625 730.66666688V784.00000031z m0-120l229.33333406-194.66666718-229.33333406-74.66666625V664.00000031z m253.33333406-237.33333375l-144-210.66666656-96 133.33333313 240 77.33333343z m-186.66666656-234.66666656l-248.00000062-88.00000031 157.33333312 213.33333375 90.6666675-125.33333344z m-133.33333406 151.99999969l-154.66666594-210.66666656L245.33333375 408l226.66666594-64.00000031z m-210.66666656 112.00000031l226.66666687 192v-256.00000031l-226.66666687 64.00000031zM488 784.00000031v-72l-285.33333375-240-106.66666594 29.33333344L488 784.00000031zM242.66666656 31.99999968999998L106.66666625 445.33333313l82.66666688-24 88.00000031-341.33333344-34.66666688-48z m37.33333313-31.99999969l24 31.99999969 330.66666656 117.33333375 109.33333406-149.33333344H279.99999969z m504 31.99999969l-103.99999969 141.33333375 186.66666656 277.33333312-2.66666625 2.66666719 61.33333313 21.33333281-141.33333375-442.66666687z"  horiz-adv-x="1024" />
      
      <glyph glyph-name="svue-loudoutu" unicode="&#60440;" d="M485.824-15.360000000000014L68.48 752.48A30.88 30.88 0 0 0 64 768.576 31.712 31.712 0 0 0 96 800h832c17.664 0 32-14.08 32-31.424a30.88 30.88 0 0 0-4.48-16.064L542.336-15.26400000000001a32.288 32.288 0 0 0-56.512-0.096z m-98.336 312.416L512 67.072l124.48 229.984h-248.96z m-34.016 62.88h317.056l68.064 125.76H285.408l68.064-125.76z m418.976 188.288l102.272 188.896H149.28l102.272-188.896c1.44 0.192 2.944 0.32 4.448 0.32h512c1.504 0 3.008-0.128 4.48-0.32z"  horiz-adv-x="1024" />
      
      <glyph glyph-name="svue-bingtu" unicode="&#60441;" d="M896 416c-1.344 0-2.464-0.608-3.744-0.768-1.28 0.16-2.432 0.768-3.744 0.768H544V764c0 0.704-0.352 1.312-0.416 2.016 0.064 0.672 0.416 1.28 0.416 1.984a32 32 0 0 1-32 32C282.624 800 96 613.376 96 384s186.624-416 416-416 416 186.624 416 416a32 32 0 0 1-32 32zM512 32C317.92 32 160 189.91999999999996 160 384 160 567.296 300.864 718.144 480 734.3679999999999V384a32 32 0 0 1 32-32h350.368C846.144 172.86400000000003 695.296 32 512 32zM625.664 717.28a355.36 355.36 0 0 0 216.832-211.84 32 32 0 1 1 60.064 22.048 414.24 414.24 0 0 1-256.224 250.336 31.968 31.968 0 1 1-20.672-60.544z"  horiz-adv-x="1024" />
      
      <glyph glyph-name="svue-zhexiantu" unicode="&#60312;" d="M896 0H96a32 32 0 0 0-32 32V672a32 32 0 0 0 64 0v-608h768a32 32 0 1 0 0-64zM247.008 256a32 32 0 0 0-20.992 56.192l200.992 174.24a32 32 0 0 0 42.272-0.288l172.128-153.44 229.088 246.304a32 32 0 0 0 46.88-43.616l-250.432-269.216a31.936 31.936 0 0 0-44.704-2.08l-174.56 155.52-179.744-155.84a31.872 31.872 0 0 0-20.928-7.776z"  horiz-adv-x="1024" />
      
      <glyph glyph-name="svue-paomadeng" unicode="&#60454;" d="M858.06933594 779.5078125h-692.13867188a49.43847656 49.43847656 0 0 1-49.43847656-49.43847656v-692.13867188a49.43847656 49.43847656 0 0 1 49.43847656-49.43847656h692.13867188a49.43847656 49.43847656 0 0 1 49.43847656 49.43847656v692.13867188a49.43847656 49.43847656 0 0 1-49.43847656 49.43847656z m-16.47949194-65.9179685v-659.179688h-659.179688v659.179688h659.179688zM314.24609375 647.67187475m16.47949193 0l32.95898463 0q16.47949193 0 16.47949194-16.47949194l0-98.87695312q0-16.47949193-16.47949194-16.47949194l-32.95898463 0q-16.47949193 0-16.47949193 16.47949194l0 98.87695312q0 16.47949193 16.47949193 16.47949194ZM337.55161485 256.16265781000004m23.30552187-23.3055211l0 0q23.3055211-23.3055211 0-46.61104296l-46.61104297-46.61104297q-23.3055211-23.3055211-46.61104296 0l0 0q-23.3055211 23.3055211 0 46.61104297l46.61104296 46.61104296q23.3055211 23.3055211 46.61104297 0ZM314.24609375 647.67187475m16.47949193 0l362.54882864 0q16.47949193 0 16.47949193-16.47949194l0-32.95898463q0-16.47949193-16.47949193-16.47949193l-362.54882864 0q-16.47949193 0-16.47949193 16.47949193l0 32.95898463q0 16.47949193 16.47949193 16.47949194ZM413.12304687 318.08203149999997m16.47949194 0l164.79492238 0q16.47949193 0 16.47949193-16.47949269l0-32.95898387q0-16.47949193-16.47949193-16.47949269l-164.79492238 0q-16.47949193 0-16.47949193 16.47949269l0 32.95898387q0 16.47949193 16.47949193 16.47949269ZM248.32812525 186.24609375m32.95898387 0l461.42578176 0q32.95898463 0 32.95898387-32.95898463l0 0q0-32.95898463-32.95898387-32.95898387l-461.42578176 0q-32.95898463 0-32.95898387 32.95898387l0 0q0 32.95898463 32.95898387 32.95898463ZM643.83593775 647.67187475m16.47949194 0l32.95898463 0q16.47949193 0 16.47949193-16.47949194l0-98.87695312q0-16.47949193-16.47949193-16.47949194l-32.95898463 0q-16.47949193 0-16.47949194 16.47949194l0 98.87695312q0 16.47949193 16.47949194 16.47949194ZM479.04101537 647.67187475m16.4794927 0l32.95898386 0q16.47949193 0 16.4794927-16.47949194l0-362.54882787q0-16.47949193-16.4794927-16.47949269l-32.95898386 0q-16.47949193 0-16.4794927 16.47949269l0 362.54882787q0 16.47949193 16.4794927 16.47949194Z"  horiz-adv-x="1024" />
      
      <glyph glyph-name="svue-wenbenkuang" unicode="&#60451;" d="M843.69921875-26.80078125H180.30078125a79.1015625 79.1015625 0 0 0-78.57421875 79.1015625V715.171875A79.1015625 79.1015625 0 0 0 180.30078125 794.2734375h663.3984375a79.1015625 79.1015625 0 0 0 78.57421875-79.1015625v-662.87109375a79.1015625 79.1015625 0 0 0-78.57421875-79.1015625zM180.30078125 741.5390625a26.3671875 26.3671875 0 0 1-25.83984375-26.3671875v-662.87109375a26.3671875 26.3671875 0 0 1 25.83984375-26.3671875h663.3984375a26.3671875 26.3671875 0 0 1 25.83984375 26.3671875V715.171875a26.3671875 26.3671875 0 0 1-25.83984375 26.3671875zM338.47094727 595.59667969h346.06933593v-55.37109375H544.13500977v-368.31665039H480.359375V540.22558594H338.47094727z"  horiz-adv-x="1024" />
      
      <glyph glyph-name="svue-zhuzhuangtu" unicode="&#60442;" d="M896 0H96a32 32 0 0 0-32 32V672a32 32 0 0 0 64 0v-608h768a32 32 0 1 0 0-64zM426.66666668 143.84000000000003a32 32 0 0 0-32 32V545.376a32 32 0 0 0 64 0v-369.536a32 32 0 0 0-32-32zM234.66666668 143.42399999999998a32 32 0 0 0-32 32V384a32 32 0 0 0 64 0v-208.576a32 32 0 0 0-32-32zM810.66666668 143.32799999999997a32 32 0 0 0-32 32V732.512a32 32 0 1 0 64 0v-557.184a32 32 0 0 0-32-32zM618.66666668 143.264a32 32 0 0 0-32 32V672a32 32 0 1 0 64 0v-496.736a32 32 0 0 0-32-32z"  horiz-adv-x="1024" />
      
      <glyph glyph-name="svue-sandiantu" unicode="&#60452;" d="M64 810.666667a21.333333 21.333333 0 0 0 21.333333-21.333334V42.66666699999996h917.333334a21.333333 21.333333 0 0 0 21.333333-21.333334v-42.666666a21.333333 21.333333 0 0 0-21.333333-21.333334H21.333333a21.333333 21.333333 0 0 0-21.333333 21.333334v810.666666A21.333333 21.333333 0 0 0 21.333333 810.666667h42.666667z m426.666667-469.333334a64 64 0 1 0 0-128 64 64 0 0 0 0 128zM341.333333 426.666667a42.666667 42.666667 0 1 0 0-85.333334 42.666667 42.666667 0 0 0 0 85.333334z m320 85.333333a64 64 0 1 0 0-128 64 64 0 0 0 0 128zM810.666667 640a42.666667 42.666667 0 1 0 0-85.333333 42.666667 42.666667 0 0 0 0 85.333333z"  horiz-adv-x="1024" />
      
      <glyph glyph-name="svue-xiangxingtu" unicode="&#60455;" d="M128 87.46666700000003h768v-85.333334H128zM245.333333 697.6c6.4 8.533333 10.666667 17.066667 10.666667 27.733333 0 23.466667-19.2 42.666667-42.666667 42.666667s-42.666667-19.2-42.666666-42.666667c0-10.666667 4.266667-19.2 10.666666-27.733333C149.333333 684.8 128 654.933333 128 618.666667h170.666667c0 36.266667-21.333333 66.133333-53.333334 78.933333zM245.333333 209.06666700000005c6.4 8.533333 10.666667 17.066667 10.666667 27.733333 0 23.466667-19.2 42.666667-42.666667 42.666667s-42.666667-19.2-42.666666-42.666667c0-10.666667 4.266667-19.2 10.666666-27.733333-32-12.8-53.333333-42.666667-53.333333-78.933334h170.666667c0 36.266667-21.333333 66.133333-53.333334 78.933334zM245.333333 454.4c6.4 8.533333 10.666667 17.066667 10.666667 27.733333 0 23.466667-19.2 42.666667-42.666667 42.666667s-42.666667-19.2-42.666666-42.666667c0-10.666667 4.266667-19.2 10.666666-27.733333C149.333333 441.6 128 409.6 128 375.46666700000003h170.666667c0 34.133333-21.333333 66.133333-53.333334 78.933333zM443.733333 697.6c6.4 8.533333 10.666667 17.066667 10.666667 27.733333 0 23.466667-19.2 42.666667-42.666667 42.666667s-42.666667-19.2-42.666666-42.666667c0-10.666667 4.266667-19.2 10.666666-27.733333-32-12.8-53.333333-42.666667-53.333333-78.933333h170.666667c0 36.266667-21.333333 66.133333-53.333334 78.933333zM443.733333 209.06666700000005c6.4 8.533333 10.666667 17.066667 10.666667 27.733333 0 23.466667-19.2 42.666667-42.666667 42.666667s-42.666667-19.2-42.666666-42.666667c0-10.666667 4.266667-19.2 10.666666-27.733333-32-12.8-53.333333-42.666667-53.333333-78.933334h170.666667c0 36.266667-21.333333 66.133333-53.333334 78.933334zM443.733333 454.4c6.4 8.533333 10.666667 17.066667 10.666667 27.733333 0 23.466667-19.2 42.666667-42.666667 42.666667s-42.666667-19.2-42.666666-42.666667c0-10.666667 4.266667-19.2 10.666666-27.733333-32-12.8-53.333333-42.666667-53.333333-78.933333h170.666667c0 34.133333-21.333333 66.133333-53.333334 78.933333zM644.266667 209.06666700000005c6.4 8.533333 10.666667 17.066667 10.666666 27.733333 0 23.466667-19.2 42.666667-42.666666 42.666667s-42.666667-19.2-42.666667-42.666667c0-10.666667 4.266667-19.2 10.666667-27.733333-32-12.8-53.333333-42.666667-53.333334-78.933334h170.666667c0 36.266667-23.466667 66.133333-53.333333 78.933334zM644.266667 454.4c6.4 8.533333 10.666667 17.066667 10.666666 27.733333 0 23.466667-19.2 42.666667-42.666666 42.666667s-42.666667-19.2-42.666667-42.666667c0-10.666667 4.266667-19.2 10.666667-27.733333-32-12.8-53.333333-42.666667-53.333334-78.933333h170.666667c0 34.133333-23.466667 66.133333-53.333333 78.933333zM842.666667 209.06666700000005c6.4 8.533333 10.666667 17.066667 10.666666 27.733333 0 23.466667-19.2 42.666667-42.666666 42.666667s-42.666667-19.2-42.666667-42.666667c0-10.666667 4.266667-19.2 10.666667-27.733333-32-12.8-53.333333-42.666667-53.333334-78.933334h170.666667c0 36.266667-21.333333 66.133333-53.333333 78.933334zM842.666667 454.4c6.4 8.533333 10.666667 17.066667 10.666666 27.733333 0 23.466667-19.2 42.666667-42.666666 42.666667s-42.666667-19.2-42.666667-42.666667c0-10.666667 4.266667-19.2 10.666667-27.733333-32-12.8-53.333333-42.666667-53.333334-78.933333h170.666667c0 34.133333-21.333333 66.133333-53.333333 78.933333z"  horiz-adv-x="1024" />
      
      <glyph glyph-name="svue-lunbotu" unicode="&#60438;" d="M412.8 448c38.4 0 76.8 22.4 89.6 57.6 16 35.2 6.4 76.8-19.2 105.6s-70.4 35.2-105.6 19.2c-35.2-12.8-57.6-51.2-57.6-89.6 0-51.2 41.6-92.8 92.8-92.8z m-19.2 118.4c6.4 6.4 12.8 9.6 22.4 9.6 16 0 32-12.8 32-28.8s-12.8-32-28.8-35.2c-16 0-32 12.8-35.2 28.8 0 9.6 3.2 19.2 9.6 25.6zM896 672h-32v64c0 35.2-28.8 64-64 64H224c-35.2 0-64-28.8-64-64v-64h-32c-35.2 0-64-28.8-64-64v-448c0-35.2 28.8-64 64-64h32v-64c0-35.2 28.8-64 64-64h576c35.2 0 64 28.8 64 64v64h32c35.2 0 64 28.8 64 64V608c0 35.2-28.8 64-64 64zM160 160c-19.2 0-32 12.8-32 32V576c0 19.2 12.8 32 32 32v-448z m640-96c0-19.2-12.8-32-32-32H256c-16 0-32 12.8-32 32V704c0 19.2 12.8 32 32 32h512c16 0 32-12.8 32-32v-640z m96 128c0-19.2-12.8-32-32-32V608c16 0 32-12.8 32-32v-384zM684.8 432L550.4 297.6l-67.2 67.2c-6.4 6.4-12.8 9.6-22.4 9.6-9.6 0-16-3.2-22.4-9.6l-160-160c-12.8-12.8-12.8-32 0-44.8 12.8-12.8 32-12.8 44.8 0l134.4 134.4 67.2-67.2c6.4-6.4 12.8-9.6 22.4-9.6 9.6 0 16 3.2 22.4 9.6l160 160c12.8 12.8 12.8 32 0 44.8-9.6 12.8-32 12.8-44.8 0z"  horiz-adv-x="1024" />
      
      <glyph glyph-name="svue-shuiweitu" unicode="&#60443;" d="M512-64a448 448 0 1 0 448 448 448 448 0 0 0-448-448z m0 832a384 384 0 1 1 384-384A384 384 0 0 1 512 768zM184.64 128a416 416 0 0 1 654.72 0zM336 208a32 32 0 0 0-22.72 9.28 32 32 0 0 0 0 45.44l352 352a32 32 0 0 0 45.44-45.44l-352-352a32 32 0 0 0-22.72-9.28zM384 448a96 96 0 1 0 96 96 96 96 0 0 0-96-96z m0 128a32 32 0 1 1 32-32 32 32 0 0 1-32 32zM640 192a96 96 0 1 0 96 96 96 96 0 0 0-96-96z m0 128a32 32 0 1 1 32-32 32 32 0 0 1-32 32z"  horiz-adv-x="1024" />
      
      <glyph glyph-name="svue-shishishijian" unicode="&#60456;" d="M512 896L0 384l512-512 512 512L512 896z m0-90.065455L933.934545 384 512-37.93454499999996 90.065455 384 512 805.934545zM663.272727 279.27272700000003h-232.727272v256h69.818181v-186.181818h162.909091z"  horiz-adv-x="1024" />
      
    </font>
</defs>
</svg>
